# xmcd
#
# Track frame offsets:
#	150
#	10242
#	22076
#	35164
#	46414
#	57582
#	71387
#	81507
#	94697
#	106895
#	118749
#	128953
#	141874
#	153138
#	163669
#	177999
#	188901
#	200898
#	211651
#	222554
#	235303
#	246056
#	258303
#	270170
#	280956
#	293164
#
# Disc length: 4047 seconds
#
# Revision: 1
# Processed by: cddbd v1.5.2PL0 Copyright (c) Steve Scherf et al.
# Submitted via: audiograbber 1.83.01
#
DISCID=890fcd1a
DTITLE=Lonzo and Oscar - There's A Hole In The Bottom of the Sea
DYEAR=1900
DGENRE=Country
TTITLE0=Charming Betsy
TTITLE1=Old Buttermilk Sky
TTITLE2=There's A Hole In The Bottom of the Sea
TTITLE3=Take Them Cold Feet Off My Back
TTITLE4=Cornbread and 'Lasses and Sassafras Tea
TTITLE5=I'm My Own Grandpa
TTITLE6=My Adobe Hacienda
TTITLE7=Near You
TTITLE8=You Blacked My Blue Eyes Once Too Often
TTITLE9=Girls Don't Nag Your Husbands
TTITLE10=You Won't Do It No More
TTITLE11=Watching The Girls Go By
TTITLE12=Sheepskin Corn
TTITLE13=Got It On My Mind
TTITLE14=I'm Movin' On (No. 2)
TTITLE15=Crazy 'Bout You Baby
TTITLE16=Let Me Be The One
TTITLE17=Knock Kneed Suzy
TTITLE18=Tell Me Was It Worth It
TTITLE19=Jangle Bells
TTITLE20=One Love For Me
TTITLE21=Jezebel
TTITLE22=Let's Live A Little
TTITLE23=Strange Little Girl
TTITLE24=Mona Lisa
TTITLE25=Frosty The De-Frosted Snowman
EXTD=
EXTT0=
EXTT1=
EXTT2=
EXTT3=
EXTT4=
EXTT5=
EXTT6=
EXTT7=
EXTT8=
EXTT9=
EXTT10=
EXTT11=
EXTT12=
EXTT13=
EXTT14=
EXTT15=
EXTT16=
EXTT17=
EXTT18=
EXTT19=
EXTT20=
EXTT21=
EXTT22=
EXTT23=
EXTT24=
EXTT25=
PLAYORDER=
